<?xml version="1.0" encoding="UTF-8"?>
<svg viewBox="0 0 788.87598 1095.6573" xmlns="http://www.w3.org/2000/svg" xmlns:xlink="http://www.w3.org/1999/xlink">
 <defs>
  <filter id="b">
   <feGaussianBlur stdDeviation="8.991"/>
  </filter>
 </defs>
 <g transform="translate(16.579 18.735)">
  <path d="m4.9996 2.8435v1052.5h745.72v-1052.5h-681.34c0.9691 2.4063 1.5313 5.0281 1.5313 7.7813 0 11.52-9.3555 20.875-20.875 20.875s-20.844-9.3555-20.844-20.875c0-2.7531 0.5309-5.375 1.5-7.7813h-25.688zm43.969 70.375c0.3555-0.018 0.7025 0 1.0625 0 11.52 0 20.875 9.3243 20.875 20.844s-9.3555 20.844-20.875 20.844-20.844-9.3243-20.844-20.844c0-11.16 8.7606-20.285 19.781-20.844zm1.0625 83.406c11.52 0 20.875 9.3555 20.875 20.875s-9.3555 20.844-20.875 20.844-20.844-9.3243-20.844-20.844 9.3243-20.875 20.844-20.875zm0 83.438c11.52 0 20.875 9.3555 20.875 20.875s-9.3555 20.844-20.875 20.844-20.844-9.3243-20.844-20.844 9.3243-20.875 20.844-20.875zm0 83.438c11.52 0 20.875 9.3243 20.875 20.844s-9.3555 20.875-20.875 20.875-20.844-9.3555-20.844-20.875 9.3243-20.844 20.844-20.844zm0 83.438c11.52 0 20.875 9.3243 20.875 20.844s-9.3555 20.875-20.875 20.875-20.844-9.3555-20.844-20.875 9.3243-20.844 20.844-20.844zm-1.0625 83.438c0.3555-0.018 0.7025 0 1.0625 0 11.52 0 20.875 9.3243 20.875 20.844s-9.3555 20.875-20.875 20.875-20.844-9.3555-20.844-20.875c0-11.16 8.7606-20.285 19.781-20.844zm1.0625 83.406c11.52 0 20.875 9.3555 20.875 20.875s-9.3555 20.844-20.875 20.844-20.844-9.3243-20.844-20.844 9.3243-20.875 20.844-20.875zm0 83.438c11.52 0 20.875 9.3555 20.875 20.875s-9.3555 20.844-20.875 20.844-20.844-9.3243-20.844-20.844 9.3243-20.875 20.844-20.875zm0 83.438c11.52 0 20.875 9.3243 20.875 20.844s-9.3555 20.875-20.875 20.875-20.844-9.3555-20.844-20.875 9.3243-20.844 20.844-20.844zm0 83.438c11.52 0 20.875 9.3243 20.875 20.844s-9.3555 20.875-20.875 20.875-20.844-9.3555-20.844-20.875 9.3243-20.844 20.844-20.844zm0 83.438c11.52 0 20.875 9.3243 20.875 20.844s-9.3555 20.875-20.875 20.875-20.844-9.3555-20.844-20.875 9.3243-20.844 20.844-20.844zm0 83.406c11.52 0 20.875 9.3555 20.875 20.875s-9.3555 20.844-20.875 20.844-20.844-9.3242-20.844-20.844 9.3243-20.875 20.844-20.875z" filter="url(#b)"/>
  <g transform="translate(0,-2)">
   <path d="m0-0.1563v1052.5h745.72v-1052.5h-681.34c0.9691 2.4063 1.5313 5.0281 1.5313 7.7813 0 11.52-9.3555 20.875-20.875 20.875s-20.844-9.3555-20.844-20.875c0-2.7531 0.5309-5.375 1.5-7.7813h-25.688zm43.969 70.375c0.3555-0.018 0.7025 0 1.0625 0 11.52 0 20.875 9.3243 20.875 20.844s-9.3555 20.844-20.875 20.844-20.844-9.3243-20.844-20.844c0-11.16 8.7606-20.285 19.781-20.844zm1.0625 83.406c11.52 0 20.875 9.3555 20.875 20.875s-9.3555 20.844-20.875 20.844-20.844-9.3243-20.844-20.844 9.3243-20.875 20.844-20.875zm0 83.438c11.52 0 20.875 9.3555 20.875 20.875s-9.3555 20.844-20.875 20.844-20.844-9.3243-20.844-20.844 9.3243-20.875 20.844-20.875zm0 83.438c11.52 0 20.875 9.3243 20.875 20.844s-9.3555 20.875-20.875 20.875-20.844-9.3555-20.844-20.875 9.3243-20.844 20.844-20.844zm0 83.438c11.52 0 20.875 9.3243 20.875 20.844s-9.3555 20.875-20.875 20.875-20.844-9.3555-20.844-20.875 9.3243-20.844 20.844-20.844zm-1.0625 83.438c0.3555-0.018 0.7025 0 1.0625 0 11.52 0 20.875 9.3243 20.875 20.844s-9.3555 20.875-20.875 20.875-20.844-9.3555-20.844-20.875c0-11.16 8.7606-20.285 19.781-20.844zm1.0625 83.406c11.52 0 20.875 9.3555 20.875 20.875s-9.3555 20.844-20.875 20.844-20.844-9.3243-20.844-20.844 9.3243-20.875 20.844-20.875zm0 83.438c11.52 0 20.875 9.3555 20.875 20.875s-9.3555 20.844-20.875 20.844-20.844-9.3243-20.844-20.844 9.3243-20.875 20.844-20.875zm0 83.438c11.52 0 20.875 9.3243 20.875 20.844s-9.3555 20.875-20.875 20.875-20.844-9.3555-20.844-20.875 9.3243-20.844 20.844-20.844zm0 83.438c11.52 0 20.875 9.3243 20.875 20.844s-9.3555 20.875-20.875 20.875-20.844-9.3555-20.844-20.875 9.3243-20.844 20.844-20.844zm0 83.438c11.52 0 20.875 9.3243 20.875 20.844s-9.3555 20.875-20.875 20.875-20.844-9.3555-20.844-20.875 9.3243-20.844 20.844-20.844zm0 83.406c11.52 0 20.875 9.3555 20.875 20.875s-9.3555 20.844-20.875 20.844-20.844-9.3242-20.844-20.844 9.3243-20.875 20.844-20.875z" fill="#fff6d5"/>
   <path d="m127.28 0.0031v1052.4" fill="none" stroke="#f55" stroke-width="3"/>
   <path d="m744.38 134.38h-616.49" fill="none" stroke="#f55" stroke-width="1.7583"/>
   <path d="m744.38 970.38h-616.49" fill="none" stroke="#f55" stroke-width="1.7583"/>
   <path id="a" d="m744.38 534.21h-616.49" fill="none" stroke="#5f8dd3" stroke-width="1.7583"/>
   <use transform="translate(0 -36.348)" width="744.0945" height="1052.3622" xlink:href="#a"/>
   <use transform="translate(0 -72.696)" width="744.0945" height="1052.3622" xlink:href="#a"/>
   <use transform="translate(0 -109.04)" width="744.0945" height="1052.3622" xlink:href="#a"/>
   <use transform="translate(0 -145.39)" width="744.0945" height="1052.3622" xlink:href="#a"/>
   <use transform="translate(0 -181.74)" width="744.0945" height="1052.3622" xlink:href="#a"/>
   <use transform="translate(0 -218.09)" width="744.0945" height="1052.3622" xlink:href="#a"/>
   <use transform="translate(0 -254.43)" width="744.0945" height="1052.3622" xlink:href="#a"/>
   <use transform="translate(0 -290.78)" width="744.0945" height="1052.3622" xlink:href="#a"/>
   <use transform="translate(0 -327.13)" width="744.0945" height="1052.3622" xlink:href="#a"/>
   <use transform="translate(0 -363.48)" width="744.0945" height="1052.3622" xlink:href="#a"/>
   <use transform="translate(0 36.348)" width="744.0945" height="1052.3622" xlink:href="#a"/>
   <use transform="translate(0 109.04)" width="744.0945" height="1052.3622" xlink:href="#a"/>
   <use transform="translate(0 145.39)" width="744.0945" height="1052.3622" xlink:href="#a"/>
   <use transform="translate(0 181.74)" width="744.0945" height="1052.3622" xlink:href="#a"/>
   <use transform="translate(0 218.09)" width="744.0945" height="1052.3622" xlink:href="#a"/>
   <use transform="translate(0 254.43)" width="744.0945" height="1052.3622" xlink:href="#a"/>
   <use transform="translate(0 290.78)" width="744.0945" height="1052.3622" xlink:href="#a"/>
   <use transform="translate(0 327.13)" width="744.0945" height="1052.3622" xlink:href="#a"/>
   <use transform="translate(0 399.83)" width="744.0945" height="1052.3622" xlink:href="#a"/>
   <use transform="translate(0 72.696)" width="744.0945" height="1052.3622" xlink:href="#a"/>
   <use transform="translate(0 363.48)" width="744.0945" height="1052.3622" xlink:href="#a"/>
  </g>
 </g>
</svg>